<svg width="41" height="63" viewBox="0 0 41 63" fill="none" xmlns="http://www.w3.org/2000/svg">
<path d="M28.3801 33.1763C25.5407 33.1763 22.8178 34.3044 20.81 36.3122C18.8022 38.32 17.6738 41.0431 17.6738 43.8826C20.5133 43.8826 23.2366 42.7547 25.2444 40.7468C27.2522 38.739 28.3801 36.0158 28.3801 33.1763Z" fill="#FF871C"/>
<path d="M17.6738 43.8828C14.8343 43.8828 12.1111 42.7547 10.1033 40.7469C8.09543 38.739 6.96755 36.016 6.96753 33.1765C9.80703 33.1765 12.5303 34.3044 14.5381 36.3122C16.5459 38.3201 17.6738 41.0433 17.6738 43.8828Z" fill="#FF871C"/>
<path d="M27.407 22.9566C26.1289 22.9566 24.863 23.2082 23.6822 23.6973C22.5013 24.1865 21.4282 24.9034 20.5244 25.8072C19.6206 26.711 18.9039 27.784 18.4148 28.9649C17.9256 30.1458 17.6738 31.4114 17.6738 32.6896C18.952 32.6896 20.2178 32.438 21.3987 31.9489C22.5796 31.4597 23.6526 30.7428 24.5565 29.839C25.4603 28.9352 26.177 27.8622 26.6661 26.6813C27.1552 25.5004 27.407 24.2348 27.407 22.9566Z" fill="#FF871C"/>
<path d="M17.6741 32.6898C15.0927 32.6898 12.6172 31.6643 10.7919 29.839C8.96657 28.0137 7.94088 25.538 7.94086 22.9566C10.5222 22.9566 12.9982 23.9821 14.8235 25.8074C16.6488 27.6327 17.674 30.1084 17.6741 32.6898Z" fill="#FF871C"/>
<path d="M26.4245 13.5994C24.1037 13.5994 21.8781 14.5041 20.237 16.1146C18.596 17.7251 17.6738 19.9093 17.6738 22.1869C19.9946 22.1869 22.2203 21.2822 23.8613 19.6717C25.5024 18.0612 26.4245 15.877 26.4245 13.5994Z" fill="#FF871C"/>
<path d="M17.6738 22.1871C16.5247 22.1871 15.3869 21.9649 14.3253 21.5333C13.2636 21.1017 12.2989 20.4692 11.4863 19.6717C10.6738 18.8743 10.0293 17.9277 9.58955 16.8858C9.14979 15.8439 8.92316 14.7272 8.92316 13.5994C10.0723 13.5994 11.2105 13.8215 12.2722 14.253C13.3339 14.6846 14.2985 15.3171 15.1111 16.1146C15.9237 16.912 16.5681 17.8588 17.0079 18.9007C17.4477 19.9426 17.6738 21.0594 17.6738 22.1871Z" fill="#FF871C"/>
<path d="M17.9049 1.35663C17.0923 2.16918 16.4447 3.13068 15.9991 4.18656C15.5535 5.24243 15.3187 6.372 15.308 7.51044C15.2973 8.64889 15.5109 9.77405 15.9367 10.8218C16.3624 11.8695 16.9916 12.8192 17.789 13.6167C18.6016 12.8041 19.2492 11.8424 19.6948 10.7865C20.1404 9.73063 20.3752 8.60129 20.3859 7.46284C20.3966 6.3244 20.183 5.19901 19.7572 4.15131C19.3315 3.1036 18.7023 2.15409 17.9049 1.35663Z" fill="#FF871C"/>
<path d="M17.6736 46.6947C17.432 46.7224 17.2099 46.8395 17.0503 47.023C16.8907 47.2065 16.8053 47.4431 16.8114 47.6862C16.8114 50.9631 16.4038 54.0714 15.6618 56.8972C15.4757 57.6042 15.2691 58.299 15.0439 58.9664C14.8188 59.6345 14.573 60.2817 14.3111 60.9063C14.2563 61.0252 14.2261 61.154 14.2222 61.2849C14.2183 61.4157 14.241 61.546 14.2886 61.6679C14.3363 61.7899 14.4077 61.901 14.4992 61.9946C14.5908 62.0882 14.7003 62.1623 14.8212 62.2126C14.9421 62.2629 15.072 62.2882 15.2029 62.2872C15.3338 62.2861 15.4632 62.2587 15.5832 62.2066C15.7033 62.1544 15.8116 62.0784 15.9016 61.9834C15.9917 61.8884 16.0616 61.7762 16.1073 61.6535C16.3883 60.984 16.6436 60.295 16.8833 59.5843C17.1231 58.8729 17.3474 58.1482 17.5438 57.4001C18.3302 54.4057 18.7657 51.1263 18.7657 47.6862C18.7693 47.5462 18.7426 47.407 18.6875 47.2783C18.6325 47.1495 18.5505 47.0342 18.4469 46.9401C18.3432 46.846 18.2202 46.7752 18.0867 46.7329C17.9533 46.6905 17.8126 46.6776 17.6736 46.6947Z" fill="#FF871C"/>
<path d="M8.08893 0.00762768C7.91513 0.0278746 7.75021 0.0945532 7.61113 0.20072C7.47206 0.306887 7.36394 0.448623 7.29859 0.61093C7.01755 1.28044 6.76226 1.96938 6.52263 2.68016C6.28278 3.39161 6.05851 4.13064 5.86207 4.87872C5.4692 6.37556 5.17708 7.93839 4.97115 9.56324C4.86742 10.3759 4.77984 11.1968 4.72687 12.0348C4.71128 12.166 4.72268 12.2989 4.7601 12.4255C4.79752 12.5521 4.8603 12.6699 4.94466 12.7715C5.02902 12.8731 5.13331 12.9564 5.25091 13.0165C5.36852 13.0765 5.4968 13.1121 5.62857 13.1209C5.76034 13.1297 5.89245 13.1116 6.017 13.0676C6.14154 13.0237 6.25622 12.9551 6.35334 12.8656C6.45045 12.7761 6.52798 12.6677 6.58191 12.5472C6.63583 12.4266 6.6648 12.2964 6.66678 12.1644C6.71828 11.367 6.79839 10.5784 6.89624 9.80752C7.09195 8.26551 7.37295 6.78055 7.74405 5.36729C7.93019 4.66026 8.13727 3.97981 8.3624 3.31243C8.58753 2.64439 8.83288 1.99716 9.0948 1.37252C9.16551 1.21514 9.1935 1.04181 9.17518 0.870257C9.15686 0.698702 9.09297 0.53518 8.99062 0.396283C8.88828 0.257385 8.75119 0.148244 8.59276 0.0799251C8.43433 0.0116059 8.26019 -0.0132834 8.08893 0.00762768Z" fill="#FF871C"/>
<path d="M1.47899 7.79613C1.23991 7.82361 1.01987 7.93855 0.860648 8.11899C0.701423 8.29944 0.614319 8.53262 0.616812 8.77326C0.616812 12.2134 1.03767 15.4928 1.82387 18.4872C2.0203 19.2353 2.24502 19.9745 2.48487 20.6857C2.72472 21.3964 2.98001 22.0856 3.26083 22.755C3.31083 22.8729 3.38325 22.9799 3.47458 23.0698C3.56591 23.1596 3.6742 23.2305 3.79296 23.2786C3.91172 23.3266 4.03891 23.3508 4.16702 23.3497C4.29513 23.3487 4.42178 23.3223 4.53974 23.2723C4.65769 23.2223 4.76469 23.1496 4.85452 23.0583C4.94435 22.967 5.0153 22.8587 5.06333 22.7399C5.11136 22.6212 5.13536 22.4942 5.13428 22.3661C5.1332 22.238 5.10707 22.1113 5.05704 21.9934C4.79512 21.3687 4.54932 20.7215 4.32419 20.0535C4.09906 19.3862 3.89198 18.7057 3.70584 17.9986C2.96379 15.1728 2.55627 12.0502 2.55627 8.77326C2.55759 8.63585 2.53006 8.49973 2.47499 8.37383C2.41992 8.24793 2.3388 8.13518 2.23699 8.04288C2.13519 7.95058 2.01516 7.88085 1.88449 7.83834C1.75381 7.79582 1.61562 7.7814 1.47899 7.79613Z" fill="#FF871C"/>
<path d="M33.8826 7.7961C33.6435 7.82359 33.4235 7.93874 33.2642 8.11919C33.105 8.29964 33.0179 8.53261 33.0204 8.77324C33.0204 12.0502 32.6128 15.1728 31.8708 17.9986C31.6847 18.7056 31.4781 19.3861 31.2529 20.0534C31.0278 20.7215 30.782 21.3686 30.5201 21.9933C30.4701 22.1113 30.4439 22.2379 30.4428 22.3661C30.4418 22.4942 30.4658 22.6211 30.5138 22.7399C30.5618 22.8587 30.6328 22.9669 30.7226 23.0583C30.8124 23.1496 30.9194 23.2222 31.0374 23.2722C31.1553 23.3223 31.282 23.3486 31.4101 23.3497C31.5382 23.3508 31.6654 23.3266 31.7842 23.2785C31.9029 23.2305 32.0112 23.1596 32.1025 23.0697C32.1939 22.9799 32.2663 22.8729 32.3163 22.7549C32.5973 22.0854 32.8526 21.3965 33.0923 20.6857C33.3321 19.9743 33.5568 19.2353 33.7533 18.4871C34.5396 15.4927 34.9747 12.2134 34.9747 8.77324C34.9763 8.63446 34.948 8.497 34.8921 8.36999C34.8361 8.24297 34.7534 8.12933 34.65 8.03679C34.5466 7.94425 34.425 7.87488 34.2926 7.83337C34.1601 7.79185 34.0203 7.77916 33.8826 7.7961Z" fill="#FF871C"/>
<path d="M27.3441 0.00763811C27.1909 0.0232275 27.0436 0.0749561 26.9143 0.15852C26.785 0.242083 26.6776 0.355107 26.6004 0.488349C26.5233 0.621591 26.4787 0.77108 26.4706 0.924828C26.4626 1.07858 26.491 1.23217 26.5537 1.37276C26.8156 1.99739 27.0614 2.6447 27.2866 3.31266C27.5117 3.97997 27.7183 4.66035 27.9045 5.36753C28.2753 6.78079 28.571 8.26575 28.7666 9.80776C28.8645 10.5787 28.9326 11.367 28.9826 12.1644C28.9846 12.2964 29.0131 12.4267 29.0671 12.5472C29.121 12.6678 29.199 12.7761 29.2961 12.8656C29.3932 12.9551 29.5074 13.024 29.632 13.0679C29.7565 13.1118 29.8886 13.1299 30.0204 13.1211C30.1522 13.1123 30.2809 13.0768 30.3985 13.0167C30.5161 12.9566 30.6204 12.8731 30.7048 12.7715C30.7891 12.6699 30.8519 12.5522 30.8893 12.4255C30.9267 12.2989 30.9377 12.166 30.9221 12.0348C30.8706 11.1968 30.7956 10.3759 30.6926 9.56325C30.4866 7.9384 30.1799 6.37557 29.7873 4.87874C29.5909 4.13065 29.3666 3.39133 29.1268 2.68017C28.8869 1.96946 28.6317 1.28031 28.3508 0.61094C28.2715 0.414695 28.1304 0.249646 27.9489 0.140782C27.7674 0.0319184 27.5545 -0.0148334 27.3441 0.00763811Z" fill="#FF871C"/>
<path opacity="0.1" d="M17.7883 46.6883C17.7512 46.6886 17.7143 46.6911 17.6774 46.6957C17.8558 46.8856 17.9527 47.1399 17.9473 47.4027C17.9473 50.9093 17.5133 54.2546 16.7268 57.3068C16.5303 58.0694 16.3052 58.8055 16.0653 59.531C15.8255 60.2557 15.5709 60.9583 15.2898 61.6411C15.1999 61.8847 15.0199 62.0826 14.7882 62.192C14.9096 62.2482 15.0411 62.2786 15.1748 62.2816C15.3086 62.2846 15.4417 62.26 15.5655 62.2093C15.6893 62.1587 15.8014 62.0832 15.8947 61.9873C15.9879 61.8914 16.0603 61.7772 16.1075 61.6521C16.3886 60.9825 16.6431 60.2944 16.883 59.5837C17.1229 58.8723 17.3481 58.1456 17.5445 57.3975C18.3307 54.4031 18.7646 51.1237 18.7646 47.6836C18.7676 47.5536 18.7445 47.4242 18.6968 47.3033C18.649 47.1823 18.5777 47.0721 18.4866 46.9793C18.3955 46.8864 18.2864 46.8127 18.1664 46.7626C18.0464 46.7125 17.9184 46.6878 17.7883 46.6883Z" fill="white"/>
<path opacity="0.1" d="M33.985 7.79014C33.9505 7.79077 33.9163 7.79327 33.8821 7.79755C33.7738 7.81026 33.6682 7.84103 33.57 7.8887C33.7351 7.9699 33.8739 8.09632 33.9702 8.25311C34.0664 8.4099 34.1162 8.59073 34.1138 8.77468C34.1138 12.2148 33.6798 15.4906 32.8933 18.485C32.6969 19.2332 32.4717 19.9748 32.2319 20.6863C31.992 21.397 31.7372 22.0849 31.4559 22.7544C31.3645 22.9699 31.1989 23.1454 30.9889 23.2488C31.1079 23.3071 31.2373 23.3406 31.3697 23.3471C31.502 23.3537 31.6344 23.3332 31.7586 23.2869C31.8827 23.2407 31.9964 23.1697 32.0922 23.0781C32.188 22.9866 32.264 22.8763 32.3158 22.7544C32.5969 22.0849 32.8514 21.397 33.0914 20.6863C33.3312 19.9748 33.5564 19.2332 33.7528 18.485C34.5392 15.4906 34.9733 12.2148 34.9733 8.77468C34.9749 8.64463 34.9502 8.51541 34.901 8.39501C34.8519 8.27461 34.779 8.16528 34.6868 8.07349C34.5947 7.9817 34.4855 7.90936 34.3649 7.86064C34.2443 7.81191 34.115 7.78812 33.985 7.79014Z" fill="white"/>
<path opacity="0.1" d="M1.60474 7.79014C1.63918 7.79077 1.6734 7.79327 1.70758 7.79755C1.81594 7.81026 1.92153 7.84103 2.01967 7.88871C1.85459 7.9699 1.71579 8.09632 1.61956 8.25311C1.52333 8.4099 1.47352 8.59074 1.47586 8.77469C1.47586 12.2148 1.90997 15.4904 2.69639 18.4848C2.89283 19.2329 3.118 19.9748 3.35784 20.6863C3.59769 21.397 3.85209 22.0849 4.13336 22.7544C4.2249 22.97 4.39099 23.1455 4.60127 23.2488C4.48227 23.3071 4.35283 23.3406 4.22047 23.3471C4.08812 23.3537 3.95577 23.3332 3.83159 23.2869C3.70741 23.2407 3.5942 23.1697 3.4984 23.0781C3.4026 22.9866 3.32615 22.8763 3.27432 22.7544C2.99327 22.0849 2.73873 21.397 2.49881 20.6863C2.25896 19.9748 2.03379 19.2329 1.83735 18.4848C1.05093 15.4904 0.616827 12.2148 0.616827 8.77469C0.615302 8.64463 0.639938 8.51542 0.689124 8.39501C0.738311 8.2746 0.811173 8.16528 0.903322 8.07349C0.995472 7.9817 1.10514 7.90936 1.22574 7.86064C1.34634 7.81192 1.47469 7.78811 1.60474 7.79014Z" fill="white"/>
<path opacity="0.1" d="M8.19996 1.04844e-05C8.16282 0.000341322 8.1259 0.00284986 8.08904 0.00741985C7.91502 0.027736 7.74952 0.0947446 7.61035 0.201186C7.47119 0.307627 7.36343 0.449661 7.29826 0.612294C7.01721 1.28181 6.76193 1.96962 6.52275 2.6804C6.2829 3.39185 6.05773 4.12998 5.86129 4.87807C5.46841 6.37491 5.17787 7.93728 4.97172 9.56213C4.86872 10.3747 4.7813 11.1953 4.72833 12.0333C4.70717 12.2107 4.73487 12.3907 4.80916 12.5533C4.88346 12.7158 5.00106 12.8548 5.14909 12.955C5.29713 13.0551 5.46992 13.1124 5.64844 13.1209C5.82696 13.1293 6.00442 13.0885 6.16126 13.0028C5.99235 12.9083 5.85575 12.7657 5.76834 12.593C5.68093 12.4203 5.64704 12.2253 5.67089 12.0333C5.72239 11.1953 5.81128 10.3747 5.91428 9.56213C6.12028 7.93728 6.41068 6.37491 6.80385 4.87807C7.00029 4.12998 7.22546 3.39185 7.46531 2.6804C7.70515 1.96969 7.96 1.28181 8.24127 0.612294C8.32473 0.403591 8.47783 0.230118 8.67461 0.121479C8.52914 0.0411042 8.36615 -0.000761438 8.19996 1.04844e-05Z" fill="white"/>
<path opacity="0.1" d="M27.4509 1.04844e-05C27.4878 0.000369291 27.5248 0.00287777 27.5614 0.00741985C27.7354 0.0277235 27.9009 0.0947438 28.0401 0.201186C28.1793 0.307628 28.287 0.449651 28.3522 0.612294C28.6332 1.28181 28.8885 1.96962 29.1277 2.6804C29.3675 3.39185 29.5927 4.12976 29.7891 4.87784C30.182 6.37468 30.4726 7.93728 30.6787 9.56213C30.7825 10.3747 30.8691 11.1953 30.9221 12.0333C30.9433 12.2107 30.9151 12.3907 30.8408 12.5533C30.7665 12.7158 30.6489 12.8548 30.5009 12.955C30.3529 13.0551 30.1805 13.1124 30.002 13.1209C29.8235 13.1293 29.646 13.0885 29.4892 13.0028C29.6581 12.9083 29.7947 12.7655 29.8821 12.5928C29.9695 12.4201 30.0034 12.2254 29.9795 12.0333C29.928 11.1953 29.8399 10.3747 29.7362 9.56213C29.5302 7.93728 29.239 6.37468 28.8466 4.87784C28.6501 4.12976 28.425 3.39185 28.1851 2.6804C27.9453 1.96969 27.6905 1.28173 27.4092 0.612294C27.3257 0.403591 27.1726 0.230118 26.9758 0.121479C27.1213 0.0411042 27.2847 -0.000761438 27.4509 1.04844e-05Z" fill="white"/>
<path d="M38.8326 33.326C38.1231 33.9711 37.5578 34.7345 37.1688 35.5728C36.7799 36.4111 36.5751 37.3079 36.5658 38.2117C36.5565 39.1155 36.7427 40.0087 37.1145 40.8404C37.4863 41.6722 38.0361 42.4262 38.7324 43.0592C39.4419 42.4141 40.0072 41.6506 40.3962 40.8124C40.7852 39.9741 40.9904 39.0773 40.9997 38.1735C41.009 37.2697 40.8223 36.3765 40.4505 35.5448C40.0787 34.713 39.5289 33.959 38.8326 33.326Z" fill="#FF871C"/>
<path d="M33.9665 45.0057C33.257 45.6508 32.6913 46.4143 32.3023 47.2525C31.9132 48.0908 31.7081 48.9873 31.6988 49.8911C31.6894 50.795 31.8762 51.6884 32.248 52.5201C32.6197 53.3519 33.1692 54.1058 33.8654 54.7389C34.5749 54.0938 35.1406 53.3303 35.5296 52.4921C35.9187 51.6538 36.1233 50.7572 36.1327 49.8534C36.1421 48.9496 35.9557 48.0564 35.584 47.2247C35.2122 46.3929 34.6627 45.6388 33.9665 45.0057Z" fill="#FF871C"/>
<path opacity="0.1" d="M12.3603 39.1495C13.2136 39.1495 13.9055 38.4576 13.9055 37.6044C13.9055 36.7511 13.2136 36.0594 12.3603 36.0594C11.507 36.0594 10.8151 36.7511 10.8151 37.6044C10.8151 38.4576 11.507 39.1495 12.3603 39.1495Z" fill="white"/>
<path opacity="0.1" d="M22.6457 28.6213C23.4989 28.6213 24.1904 27.9294 24.1904 27.0762C24.1904 26.2229 23.4989 25.5312 22.6457 25.5312C21.7924 25.5312 21.1005 26.2229 21.1005 27.0762C21.1005 27.9294 21.7924 28.6213 22.6457 28.6213Z" fill="white"/>
<path opacity="0.1" d="M21.7042 29.3569C22.2243 29.3569 22.6458 28.9353 22.6458 28.4152C22.6458 27.8951 22.2243 27.4736 21.7042 27.4736C21.1841 27.4736 20.7625 27.8951 20.7625 28.4152C20.7625 28.9353 21.1841 29.3569 21.7042 29.3569Z" fill="white"/>
<path opacity="0.1" d="M22.6457 28.6213C23.4989 28.6213 24.1904 27.9294 24.1904 27.0762C24.1904 26.2229 23.4989 25.5312 22.6457 25.5312C21.7924 25.5312 21.1005 26.2229 21.1005 27.0762C21.1005 27.9294 21.7924 28.6213 22.6457 28.6213Z" fill="white"/>
<path opacity="0.1" d="M21.7042 29.3569C22.2243 29.3569 22.6458 28.9353 22.6458 28.4152C22.6458 27.8951 22.2243 27.4736 21.7042 27.4736C21.1841 27.4736 20.7625 27.8951 20.7625 28.4152C20.7625 28.9353 21.1841 29.3569 21.7042 29.3569Z" fill="white"/>
<path opacity="0.1" d="M13.7652 19.7412C12.9119 19.7412 12.2205 19.0493 12.2205 18.196C12.2205 17.3427 12.9119 16.651 13.7652 16.651C14.6185 16.651 15.3104 17.3427 15.3104 18.196C15.3104 19.0493 14.6185 19.7412 13.7652 19.7412Z" fill="white"/>
<path opacity="0.1" d="M14.4642 20.565C14.9843 20.565 15.4058 20.1432 15.4058 19.6231C15.4058 19.103 14.9843 18.6815 14.4642 18.6815C13.9441 18.6815 13.5225 19.103 13.5225 19.6231C13.5225 20.1432 13.9441 20.565 14.4642 20.565Z" fill="white"/>
<path opacity="0.1" d="M17.2896 8.85969C17.8097 8.85969 18.2313 8.43813 18.2313 7.91802C18.2313 7.39792 17.8097 6.97614 17.2896 6.97614C16.7695 6.97614 16.348 7.39792 16.348 7.91802C16.348 8.43813 16.7695 8.85969 17.2896 8.85969Z" fill="white"/>
</svg>
