<svg width="98" height="150" viewBox="0 0 98 150" fill="none" xmlns="http://www.w3.org/2000/svg">
<path d="M70.1561 79.9048C63.318 79.9048 56.7598 82.6216 51.9246 87.4568C47.0893 92.2921 44.3731 98.8498 44.373 105.688C51.2111 105.688 57.7683 102.972 62.6035 98.1363C67.4388 93.3011 70.1561 86.7429 70.1561 79.9048Z" fill="white"/>
<path d="M39.6872 105.688C32.8491 105.688 26.291 102.971 21.4557 98.1362C16.6204 93.3009 13.9031 86.7433 13.9031 79.9052C20.7412 79.9051 27.2993 82.6214 32.1346 87.4567C36.9699 92.2919 39.6872 98.8501 39.6872 105.688Z" fill="white"/>
<path d="M67.8115 55.2935C64.7333 55.2934 61.686 55.8993 58.8422 57.0772C55.9984 58.2552 53.4143 59.9822 51.2377 62.1588C49.0611 64.3354 47.3341 66.9189 46.1562 69.7628C44.9782 72.6066 44.3718 75.6544 44.3718 78.7325C47.45 78.7326 50.4983 78.1267 53.3421 76.9488C56.186 75.7708 58.7701 74.0443 60.9466 71.8677C63.1232 69.6912 64.8492 67.1071 66.0271 64.2632C67.2051 61.4194 67.8114 58.3716 67.8115 55.2935Z" fill="white"/>
<path d="M39.6855 78.7331C33.469 78.7331 27.5075 76.2634 23.1117 71.8677C18.716 67.472 16.2459 61.51 16.2458 55.2935C22.4624 55.2935 28.4249 57.7631 32.8207 62.1588C37.2164 66.5545 39.6854 72.5166 39.6855 78.7331Z" fill="white"/>
<path d="M65.4453 32.7595C59.8563 32.7595 54.4965 34.9381 50.5445 38.8165C46.5925 42.6949 44.3718 47.955 44.3718 53.4399C49.9608 53.4399 55.3217 51.2613 59.2737 47.3829C63.2257 43.5045 65.4453 38.2444 65.4453 32.7595Z" fill="white"/>
<path d="M39.6863 53.4405C36.9189 53.4405 34.1789 52.9052 31.6222 51.8659C29.0654 50.8266 26.7423 49.3033 24.7855 47.3829C22.8286 45.4625 21.2767 43.183 20.2176 40.6738C19.1586 38.1647 18.6128 35.4754 18.6128 32.7595C21.3802 32.7595 24.1212 33.2942 26.678 34.3335C29.2347 35.3728 31.5578 36.8961 33.5147 38.8165C35.4715 40.7369 37.0235 43.017 38.0826 45.5261C39.1416 48.0353 39.6863 50.7246 39.6863 53.4405Z" fill="white"/>
<path d="M42.1688 3.27637C40.2119 5.23316 38.6523 7.54867 37.5793 10.0914C36.5062 12.6342 35.9408 15.3544 35.915 18.0961C35.8892 20.8377 36.4037 23.5473 37.429 26.0704C38.4543 28.5935 39.9694 30.8807 41.8898 32.8011C43.8467 30.8443 45.4063 28.5283 46.4793 25.9855C47.5523 23.4427 48.1178 20.723 48.1436 17.9814C48.1694 15.2398 47.656 12.5302 46.6307 10.0071C45.6054 7.48399 44.0892 5.19681 42.1688 3.27637Z" fill="white"/>
<path d="M41.6104 112.46C41.0286 112.527 40.4937 112.809 40.1094 113.25C39.7251 113.692 39.5194 114.262 39.5341 114.848C39.5341 122.739 38.5525 130.225 36.7657 137.03C36.3174 138.732 35.8198 140.406 35.2776 142.013C34.7355 143.622 34.1435 145.18 33.5128 146.684C33.3808 146.971 33.308 147.281 33.2986 147.596C33.2892 147.911 33.344 148.225 33.4587 148.519C33.5734 148.812 33.7454 149.08 33.9659 149.305C34.1864 149.531 34.4501 149.709 34.7412 149.83C35.0323 149.951 35.3452 150.012 35.6604 150.01C35.9757 150.007 36.2873 149.941 36.5764 149.816C36.8655 149.69 37.1262 149.507 37.3431 149.278C37.56 149.049 37.7284 148.779 37.8384 148.484C38.5152 146.872 39.13 145.212 39.7071 143.501C40.2847 141.787 40.8259 140.042 41.2989 138.241C43.1926 131.03 44.2404 123.132 44.2404 114.848C44.2492 114.511 44.1847 114.175 44.0522 113.865C43.9197 113.555 43.7222 113.278 43.4726 113.051C43.2229 112.824 42.9267 112.654 42.6053 112.552C42.2839 112.45 41.945 112.419 41.6104 112.46Z" fill="white"/>
<path d="M18.5284 0.0277909C18.1099 0.0765498 17.7127 0.237126 17.3778 0.492798C17.0428 0.748471 16.7825 1.0898 16.6251 1.48067C15.9483 3.093 15.3335 4.7521 14.7564 6.46382C14.1788 8.17714 13.6387 9.95686 13.1657 11.7584C12.2195 15.3631 11.5161 19.1267 11.0201 23.0397C10.7703 24.9967 10.5594 26.9737 10.4318 28.9918C10.3943 29.3076 10.4218 29.6276 10.5119 29.9326C10.602 30.2376 10.7532 30.5212 10.9563 30.7659C11.1595 31.0106 11.4106 31.2111 11.6939 31.3558C11.9771 31.5005 12.286 31.586 12.6033 31.6072C12.9207 31.6284 13.2388 31.5848 13.5387 31.4791C13.8387 31.3733 14.1149 31.2079 14.3487 30.9924C14.5826 30.7769 14.7693 30.516 14.8992 30.2257C15.029 29.9354 15.0988 29.6218 15.1036 29.3038C15.2276 27.3835 15.4205 25.4845 15.6562 23.628C16.1274 19.9145 16.8042 16.339 17.6979 12.9355C18.1461 11.2328 18.6448 9.59364 19.187 7.98645C19.7291 6.37767 20.32 4.81953 20.9508 3.31529C21.121 2.93629 21.1884 2.51833 21.1443 2.10519C21.1002 1.69204 20.9463 1.29825 20.6999 0.963754C20.4534 0.629259 20.1233 0.366425 19.7417 0.201898C19.3602 0.0373713 18.9408 -0.0225675 18.5284 0.0277909Z" fill="white"/>
<path d="M2.61062 18.7839C2.03486 18.85 1.50496 19.1274 1.12151 19.5619C0.738064 19.9965 0.528302 20.5575 0.534305 21.137C0.534305 29.4215 1.54781 37.319 3.44114 44.5301C3.91421 46.3319 4.45538 48.112 5.03298 49.8247C5.61058 51.5363 6.22537 53.1959 6.90166 54.8079C7.02206 55.092 7.19647 55.3496 7.41642 55.566C7.63636 55.7823 7.89713 55.9531 8.18314 56.0688C8.46914 56.1845 8.77544 56.2428 9.08396 56.2402C9.39247 56.2377 9.69748 56.1741 9.98153 56.0537C10.2656 55.9333 10.5233 55.7584 10.7396 55.5384C10.9559 55.3184 11.1268 55.0577 11.2425 54.7717C11.3581 54.4857 11.4159 54.1799 11.4133 53.8714C11.4107 53.5629 11.3478 53.2579 11.2273 52.9738C10.5966 51.4696 10.0046 49.9109 9.46245 48.3021C8.92028 46.6951 8.42269 45.0564 7.97443 43.3536C6.1874 36.5485 5.20601 29.0286 5.20601 21.137C5.20918 20.8061 5.14182 20.4783 5.00919 20.1751C4.87656 19.8719 4.6812 19.6004 4.43604 19.3781C4.19088 19.1558 3.90183 18.9879 3.58713 18.8855C3.27244 18.7831 2.93964 18.7484 2.61062 18.7839Z" fill="white"/>
<path d="M80.6455 18.784C80.0698 18.8502 79.5398 19.1275 79.1564 19.5621C78.773 19.9966 78.5632 20.5577 78.5692 21.1372C78.5692 29.0287 77.5876 36.5486 75.8008 43.3537C75.3525 45.0564 74.8549 46.6951 74.3128 48.3023C73.7706 49.911 73.1787 51.4695 72.5479 52.974C72.4274 53.258 72.3645 53.563 72.3619 53.8715C72.3593 54.18 72.4171 54.4858 72.5328 54.7718C72.6484 55.0578 72.8193 55.3186 73.0356 55.5385C73.252 55.7585 73.5096 55.9334 73.7937 56.0538C74.0777 56.1743 74.3827 56.2378 74.6913 56.2404C74.9998 56.2429 75.3061 56.1847 75.5921 56.069C75.8781 55.9532 76.1389 55.7825 76.3588 55.5661C76.5787 55.3497 76.7532 55.0921 76.8736 54.808C77.5504 53.1957 78.1652 51.5366 78.7422 49.8249C79.3198 48.1116 79.861 46.332 80.3341 44.5303C82.2278 37.3191 83.2755 29.4217 83.2755 21.1372C83.2793 20.803 83.2112 20.4719 83.0765 20.1661C82.9418 19.8602 82.7438 19.5865 82.4947 19.3636C82.2457 19.1408 81.9518 18.9737 81.6329 18.8738C81.3139 18.7738 80.9772 18.7432 80.6455 18.784Z" fill="white"/>
<path d="M64.9 0.0275319C64.5312 0.0650744 64.1765 0.189648 63.8651 0.390887C63.5537 0.592126 63.295 0.864309 63.1092 1.18518C62.9235 1.50606 62.8161 1.86606 62.7967 2.23632C62.7772 2.60658 62.8456 2.97645 62.9968 3.31503C63.6275 4.81927 64.2195 6.37813 64.7616 7.98673C65.3038 9.59374 65.8014 11.2322 66.2496 12.9353C67.1426 16.3387 67.8548 19.9148 68.326 23.6283C68.5616 25.4848 68.7256 27.3833 68.8461 29.3035C68.8509 29.6215 68.9196 29.9351 69.0494 30.2254C69.1793 30.5158 69.3671 30.7766 69.6009 30.9922C69.8348 31.2077 70.1099 31.3736 70.4098 31.4793C70.7098 31.5851 71.0279 31.6287 71.3453 31.6075C71.6626 31.5863 71.9726 31.5007 72.2558 31.3561C72.539 31.2114 72.7902 31.0103 72.9933 30.7656C73.1965 30.5209 73.3477 30.2374 73.4378 29.9324C73.5279 29.6274 73.5554 29.3074 73.5178 28.9916C73.3938 26.9735 73.2122 24.9964 72.9641 23.0395C72.468 19.1265 71.7293 15.3629 70.784 11.7582C70.3109 9.95661 69.7709 8.17617 69.1933 6.46356C68.6156 4.75201 68.0009 3.09238 67.3246 1.48041C67.1337 1.00781 66.7938 0.610338 66.3567 0.348171C65.9196 0.0860039 65.4069 -0.0265842 64.9 0.0275319Z" fill="white"/>
<path d="M92.5669 80.2661C90.8584 81.8197 89.4971 83.6582 88.5603 85.677C87.6236 87.6957 87.1304 89.8548 87.108 92.0313C87.0856 94.2079 87.5341 96.3595 88.4295 98.3625C89.3249 100.365 90.6489 102.181 92.3258 103.705C94.0343 102.152 95.3957 100.313 96.3324 98.2943C97.2692 96.2756 97.7635 94.1165 97.7858 91.94C97.8082 89.7634 97.3587 87.6118 96.4633 85.6088C95.5679 83.6058 94.2438 81.7906 92.5669 80.2661Z" fill="white"/>
<path d="M80.8482 108.393C79.1396 109.946 77.7774 111.785 76.8405 113.804C75.9036 115.822 75.4096 117.981 75.387 120.158C75.3645 122.335 75.8144 124.486 76.7096 126.489C77.6049 128.492 78.9281 130.308 80.6049 131.832C82.3135 130.279 83.6757 128.44 84.6126 126.422C85.5495 124.403 86.0424 122.243 86.0649 120.067C86.0874 117.89 85.6387 115.739 84.7434 113.736C83.8482 111.733 82.5249 109.917 80.8482 108.393Z" fill="white"/>
</svg>
