<svg width="194" height="194" viewBox="0 0 194 194" fill="none" xmlns="http://www.w3.org/2000/svg">
<path d="M188.453 26.5215C185.599 23.6627 180.968 23.6578 178.114 26.5094L90.4002 113.992L58.7532 79.6203C56.0186 76.652 51.3952 76.4595 48.4219 79.1937C45.4509 81.9282 45.2607 86.5539 47.9953 89.5249L84.7969 129.492C86.1447 130.957 88.0309 131.808 90.0198 131.849C90.0732 131.851 90.1247 131.851 90.1759 131.851C92.1087 131.851 93.968 131.084 95.3377 129.719L188.438 36.8623C191.299 34.011 191.304 29.3804 188.453 26.5215Z" fill="#1ABC9C"/>
<path d="M186.688 89.6882C182.65 89.6882 179.377 92.9612 179.377 97C179.377 142.424 142.424 179.377 97 179.377C51.5782 179.377 14.6231 142.424 14.6231 97C14.6231 51.5782 51.5782 14.6231 97 14.6231C101.038 14.6231 104.312 11.3501 104.312 7.31175C104.312 3.27299 101.038 0 97 0C43.5136 0 0 43.5136 0 97C0 150.484 43.5136 194 97 194C150.484 194 194 150.484 194 97C194 92.9616 190.727 89.6882 186.688 89.6882Z" fill="#1ABC9C"/>
</svg>
