<svg width="532" height="532" viewBox="0 0 532 532" fill="none" xmlns="http://www.w3.org/2000/svg">
<g filter="url(#filter0_d_92_253)">
<path d="M447.018 79.98C398.665 31.628 334.378 5 265.998 5C265.994 5 266 5 265.996 5C197.622 5 133.33 31.631 84.98 79.98C36.629 128.332 10 192.619 10 261C10.002 304.529 21.08 347.312 42.092 385.152L10.554 497.96C9.096 503.177 10.564 508.775 14.394 512.605C18.224 516.435 23.82 517.902 29.04 516.445L141.851 484.906C179.687 505.921 222.468 516.999 265.999 517C334.38 517 398.667 490.371 447.02 442.019C495.373 393.667 522 329.379 522 260.999C521.998 192.618 495.368 128.332 447.018 79.98ZM265.998 487C225.652 486.999 186.049 476.227 151.467 455.849C149.138 454.476 146.506 453.772 143.852 453.772C142.498 453.772 141.14 453.955 139.813 454.326L46.619 480.38L72.673 387.189C73.772 383.259 73.222 379.052 71.151 375.536C50.773 340.949 40.002 301.343 40 260.999C40 200.632 63.508 143.879 106.194 101.193C148.88 58.507 205.633 35 265.998 35C390.612 35 491.996 136.383 492 260.999C492 385.616 390.616 487 265.998 487Z" fill="white"/>
<path d="M376.507 280.182C367.338 271.012 355.111 265.962 342.079 265.962C329.047 265.962 316.821 271.012 307.654 280.181L300.7 287.134C298.985 288.848 296.68 289.793 294.211 289.793C291.74 289.793 289.435 288.848 287.717 287.13L239.844 239.258C238.129 237.544 237.185 235.238 237.184 232.767C237.184 230.296 238.127 227.992 239.84 226.279L246.796 219.324C265.779 200.341 265.779 169.453 246.797 150.47L232.886 136.555C223.715 127.388 211.489 122.341 198.458 122.341C185.427 122.341 173.201 127.389 164.031 136.559L153.659 146.933C131.73 168.862 123.77 201.518 131.243 238.888C138.276 274.052 158.379 309.65 187.85 339.124C224.989 376.259 272.289 398.431 314.38 398.434H314.388C340.909 398.434 363.614 389.75 380.043 373.321L390.416 362.948C409.399 343.965 409.399 313.075 390.416 294.09L376.507 280.182ZM369.204 341.735L358.831 352.108C348.149 362.789 332.783 368.434 314.389 368.434H314.384C280.072 368.432 240.7 349.545 209.065 317.912C183.735 292.58 166.545 262.426 160.662 233.005C155.219 205.788 160.266 182.755 174.874 168.146L185.245 157.773C188.748 154.271 193.44 152.342 198.459 152.342C203.48 152.342 208.174 154.271 211.675 157.771L225.584 171.683C232.87 178.97 232.87 190.825 225.585 198.111L218.629 205.066C211.248 212.446 207.184 222.286 207.185 232.772C207.186 243.256 211.252 253.095 218.632 260.474L266.505 308.345C273.887 315.729 283.727 319.795 294.212 319.795C304.695 319.795 314.533 315.73 321.913 308.35L328.868 301.396C332.37 297.893 337.062 295.964 342.08 295.964C347.099 295.964 351.791 297.893 355.295 301.397L369.204 315.306C376.49 322.591 376.491 334.448 369.204 341.735Z" fill="white"/>
</g>
<defs>
<filter id="filter0_d_92_253" x="0" y="0" width="532" height="532" filterUnits="userSpaceOnUse" color-interpolation-filters="sRGB">
<feFlood flood-opacity="0" result="BackgroundImageFix"/>
<feColorMatrix in="SourceAlpha" type="matrix" values="0 0 0 0 0 0 0 0 0 0 0 0 0 0 0 0 0 0 127 0" result="hardAlpha"/>
<feOffset dy="5"/>
<feGaussianBlur stdDeviation="5"/>
<feComposite in2="hardAlpha" operator="out"/>
<feColorMatrix type="matrix" values="0 0 0 0 0 0 0 0 0 0 0 0 0 0 0 0 0 0 0.5 0"/>
<feBlend mode="normal" in2="BackgroundImageFix" result="effect1_dropShadow_92_253"/>
<feBlend mode="normal" in="SourceGraphic" in2="effect1_dropShadow_92_253" result="shape"/>
</filter>
</defs>
</svg>
