<svg id="svg1" height="64" viewBox="0 0 64 63.999999" width="64" xmlns="http://www.w3.org/2000/svg" xmlns:xlink="http://www.w3.org/1999/xlink" xmlns:svg="http://www.w3.org/2000/svg"><linearGradient id="linearGradient2314" gradientUnits="userSpaceOnUse" x1="86" x2="126" y1="58" y2="58"><stop id="stop2313" offset="0" stop-color="#f00"/><stop id="stop2314" offset="1" stop-color="#ffae00"/></linearGradient><g id="layer1" transform="translate(-74)"><path id="path2283" d="m106.00059 6.0000011c-.21528-.00011-.40647.13758-.4746.3418l-.4199 1.26367-1.26363.41992c-.45681.15153-.45681.79769 0 .94922l1.26363.41992.4199 1.2636699c.15157.456741.79763.456741.94919 0l.42186-1.2636699 1.26168-.41992c.4568-.15153.4568-.79769 0-.94922l-1.26168-.41992-.42186-1.26367c-.0681-.20422-.25931-.34191-.47459-.3418zm0 7.4492209c-2.10715.00056-3.79271 1.822994-3.62879 3.923834l2.63273 33.70508c.10906 1.21417 1.88306 1.21417 1.99212 0l2.63273-33.70508c.16392-2.10084-1.52164-3.923274-3.62879-3.923834zm-11.364862 1.20703c-.08317.001-.165839.0133-.246086.0352-.415501.11093-.713567.475074-.74021.904304l-.08789 1.47461-1.234335.8125c-.804817.52934-.469527 1.77874.492171 1.83398l1.474562.0879.814427 1.23242c.529693.79984 1.772509.46727 1.831971-.49023l.08789-1.47461 1.232382-.8125c.804817-.52934.469526-1.77874-.492172-1.83398l-1.472608-.0879-.814426-1.232434c-.187221-.28374-.505754-.45294-.845676-.44922zm11.364862.792974c.97149.00026 1.71029.79897 1.63472 1.76758l-1.63472 20.94336-1.63472-20.94336c-.0756-.96861.66323-1.76732 1.63472-1.76758zm8.488.53906c-.5527 0-1.01168.45899-1.01168 1.01172s.45898 1.01172 1.01168 1.01172 1.01169-.45899 1.01169-1.01172-.45899-1.01172-1.01169-1.01172zm4.01159 1.98828c-.8352 0-1.52339.68821-1.52339 1.52344s.68819 1.52344 1.52339 1.52344 1.52339-.68821 1.52339-1.52344-.68819-1.52344-1.52339-1.52344zm-4.07214 3.23438c-.15917.008-.30498.0915-.39255.22461l-.73241 1.11133-1.33003.0781c-.48153.0281-.64809.65438-.24413.91797l1.10934.73242.0801 1.33008c.0306.47828.65143.64376.91598.24414l.73436-1.11133 1.32808-.0781c.48245-.0264.65065-.65378.24609-.91797l-1.1113-.73242-.0801-1.32813c-.012-.21544-.16079-.39891-.36913-.45508-.0503-.0132-.10237-.0185-.1543-.0156zm-15.42722 2.7207c-1.117713 0-2.03509.91547-2.03509 2.03321 0 1.11773.917377 2.03515 2.03509 2.03515 1.11771 0 2.03509-.91742 2.03509-2.03515 0-1.11774-.91738-2.03321-2.03509-2.03321zm-7.734123 1.07031c-.808446-.0276-1.567973.28502-2.052667.8418-.619406.71146-.99714 1.99692-.447252 3.23047.606273 1.36001 2.213904 2.73123 3.798704 5.125 1.262918 1.90757 2.653669 4.40055 3.995964 7.21875 1.393093 2.92486 3.507604 8.83924 3.964714 10.80859.26917 1.18688 2.02384.9543 1.97454-.26171-.11814-3.30606-.41895-7.79364-1.66205-12.16407-.961037-3.37874-2.287108-6.16081-3.632694-8.48828-1.557447-2.69392-2.835087-4.89055-4.480323-5.87305-.470812-.28116-.973869-.42091-1.458936-.4375zm29.467793 0c-.48506.0166-.98815.15636-1.45894.4375-1.64524.9825-2.92288 3.17913-4.48033 5.87305-1.34558 2.32747-2.67165 5.10954-3.63269 8.48828-1.2431 4.37042-1.54392 8.85801-1.66205 12.16407-.0493 1.21602 1.70537 1.44859 1.97454.26171.45711-1.96935 2.57162-7.88373 3.96471-10.80859 1.3423-2.8182 2.73305-5.31118 3.99597-7.21875 1.57943-2.38566 3.19405-3.76857 3.79871-5.125.54998-1.23376.17198-2.5192-.44726-3.23047-.48472-.55682-1.24423-.86945-2.05266-.8418zm-29.510761 1.98829c.141564.01.300555.0609.476548.16601.711345.4248 2.247085 2.51633 3.773314 5.15625 1.285057 2.22279 2.533504 4.84558 3.441294 8.03711.340069 1.19558.481211 2.38949.691384 3.5918-.496724-1.25026-.786626-2.43463-1.23824-3.38281-1.375615-2.88815-2.802196-5.45226-4.134632-7.46485-1.42038-2.14542-3.283905-4.03403-3.640506-4.83398-.25306-.56765.0174-1.31124.630838-1.26953zm29.555681 0c.61341-.0416.88161.7025.62888 1.26953-.35723.80135-2.21792 2.68524-3.6405 4.83398-1.33244 2.01259-2.75902 4.5767-4.13464 7.46485-.45161.94818-.74152 2.13255-1.23824 3.38281.21017-1.20231.35132-2.39622.69139-3.5918.90779-3.19153 2.15624-5.81432 3.44129-8.03711 1.52623-2.63992 3.06197-4.73145 3.77331-5.15625.17604-.10512.33695-.15642.47851-.16601zm-33.965693 6.64648c-.06887.008-.135371.0297-.195306.0644-.186491.10753-.283259.32231-.240227.5332l.107418.5293-.35741.4043c-.318981.3589.002.91728.472641.82226l.531232-.10937.404284.35937c.359598.31596.914963-.005.820286-.47461l-.107418-.52929.359363-.4043c.320492-.35966-.0029-.91989-.474594-.82227l-.529279.10938-.406237-.35938c-.105229-.0933-.244895-.13796-.384753-.12304zm37.186283.83984c-.5527 0-1.01168.45899-1.01168 1.01172s.45898 1.01172 1.01168 1.01172 1.01169-.45899 1.01169-1.01172-.45899-1.01172-1.01169-1.01172zm-35.955854 4.38282c-.716985-.003-1.425808.33324-1.787052 1-.380292.70166-.349893 1.66616.179682 2.39257.599777.82283 1.673479 1.36002 2.939357 2.60157.971408.95273 2.102047 2.24308 3.245989 3.73242 1.167971 1.52059 3.194027 4.80312 3.68152 5.83984.513645 1.10231 2.178264.50581 1.874939-.67187-.498133-1.96158-1.260128-4.61687-2.579994-7.10156-1.018596-1.91754-2.179189-3.42954-3.287002-4.65625-1.272028-1.40855-2.256815-2.57873-3.560431-3.01954-.228302-.0772-.468014-.11602-.707008-.11718zm35.912884 0c-.23898.001-.47873.04-.707.11718-1.30362.44081-2.28841 1.61098-3.56044 3.01954-1.10781 1.22671-2.2684 2.73871-3.287 4.65625-1.31986 2.48469-2.08185 5.13998-2.57999 7.10156-.30333 1.17768 1.3613 1.77418 1.87494.67187.4875-1.03672 2.51355-4.31925 3.68152-5.83984 1.14395-1.48934 2.27458-2.77969 3.24599-3.73242 1.26475-1.24043 2.33995-1.77927 2.93935-2.60157.53008-.72719.55955-1.69164.17969-2.39257-.36129-.66686-1.0701-1.00352-1.78706-1zm.006 1.99218c.11301-.004.0442.16899-.0137.22071-1.12642 1.00465-2.34097 1.89225-3.32606 3.04492.81533-1.26963 1.97687-2.27319 3.1581-3.19141.0851-.0514.14397-.0729.18163-.0742zm-35.914838.0195c.04969.00082.114282.0205.167963.0527 1.216968.88736 2.309635 1.95208 3.162006 3.19336-.946425-1.1777-2.203297-2.05069-3.326064-3.04492-.126547-.14884-.08672-.20253-.0039-.20117zm17.952398 12.62894c-1.7131 0-3.26194.1398-4.44713.38672-.59258.12346-1.09023.26711-1.52338.48047-.21657.10668-.421987.227-.62107.42969-.199074.20269-.40819.54256-.40819.95312s.209116.75044.40819.95313c.199083.20269.4045.32301.62107.42968.43315.21336.9308.35701 1.52338.48047 1.18519.24692 2.73403.38672 4.44713.38672 1.71309 0 3.26194-.1398 4.44712-.38672.59258-.12346 1.09024-.26711 1.52338-.48047.21658-.10667.422-.22699.62108-.42968s.40819-.54257.40819-.95313-.20911-.75043-.40819-.95312-.4045-.32301-.62108-.42969c-.43314-.21336-.9308-.35701-1.52338-.48047-1.18518-.24692-2.73403-.38672-4.44712-.38672zm0 2c1.15781 0 2.03956.13179 2.92178.25-.88222.11821-1.76397.25-2.92178.25s-2.03955-.13179-2.92179-.25c.88224-.11821 1.76398-.25 2.92179-.25z" fill="url(#linearGradient2314)" stroke-dashoffset="7.4" stroke-linecap="round" stroke-linejoin="round"/></g></svg>